<svg width="167" height="244" viewBox="0 0 167 244" fill="none" xmlns="http://www.w3.org/2000/svg">
<g filter="url(#filter0_d)">
<path d="M153 168.148L153 56.8702C153 37.6777 124.308 36.9023 124.308 56.8702L124.308 97.5815C123.92 103.204 111.513 103.397 111.125 97.5815L111.125 76.6443C111.125 62.2982 94.4533 63.2676 94.4533 76.6443L94.4533 104.173C94.4533 118.325 74.2915 118.325 74.2915 104.173L74.2915 29.9232C74.2915 8.21038 49.8647 9.17969 49.8647 29.9232L49.8647 85.7558C49.8647 100.683 33.3863 101.071 33.3863 85.7558L33.3863 53.1868C33.3863 37.096 14 36.9021 14 53.1868L14 168.148C14 247.438 153 252.284 153 168.148Z" fill="#AA5858" stroke="#C06262" stroke-width="8"/>
<path d="M119.152 208.19C126.518 205.864 147.262 185.12 142.415 170.58C139.895 164.571 132.529 166.836 131.947 171.937C130.396 185.314 123.804 191.712 115.08 197.721C109.455 200.906 111.591 211.485 119.152 208.19Z" fill="#FCFCFC"/>
</g>
<defs>
<filter id="filter0_d" x="0" y="0" width="167" height="243.446" filterUnits="userSpaceOnUse" color-interpolation-filters="sRGB">
<feFlood flood-opacity="0" result="BackgroundImageFix"/>
<feColorMatrix in="SourceAlpha" type="matrix" values="0 0 0 0 0 0 0 0 0 0 0 0 0 0 0 0 0 0 127 0"/>
<feOffset/>
<feGaussianBlur stdDeviation="5"/>
<feColorMatrix type="matrix" values="0 0 0 0 0 0 0 0 0 0 0 0 0 0 0 0 0 0 0.25 0"/>
<feBlend mode="normal" in2="BackgroundImageFix" result="effect1_dropShadow"/>
<feBlend mode="normal" in="SourceGraphic" in2="effect1_dropShadow" result="shape"/>
</filter>
</defs>
</svg>
